<?xml version="1.0" encoding="UTF-8"?>
<svg viewBox="0 0 1040 600" xmlns="http://www.w3.org/2000/svg" font-family="-apple-system,'PingFang SC',system-ui,sans-serif">
  <defs>
    <marker id="a3" markerWidth="8" markerHeight="8" refX="6.5" refY="4" orient="auto"><path d="M0,0 L7,4 L0,8 Z" fill="#cdbfa3"/></marker>
    <marker id="a3g" markerWidth="8" markerHeight="8" refX="6.5" refY="4" orient="auto"><path d="M0,0 L7,4 L0,8 Z" fill="#cf9a52"/></marker>
    <filter id="s3" x="-20%" y="-30%" width="140%" height="170%"><feDropShadow dx="0" dy="3" stdDeviation="4" flood-color="#5b3a1e" flood-opacity="0.12"/></filter>
    <style>
      .t3{ fill:#2d1b0e; font-size:23px; font-weight:800; letter-spacing:.02em; }
      .pl{ fill:#3a2817; font-size:14.5px; font-weight:600; }
      .bandt{ fill:#c0532f; font-size:19px; font-weight:800; }
      .nm3k{ fill:#c0532f; font-size:16px; font-weight:800; }
      .memt{ fill:#c0532f; font-size:18px; font-weight:800; }
      .d3{ fill:#7a6a55; font-size:12.5px; }
      .pill{ fill:#fffdf6; stroke:#ece0c4; stroke-width:1.2; rx:23; }
      .band{ fill:#fdeee7; stroke:#f0cdbd; stroke-width:1.3; rx:16; }
      .c3{ fill:#fffdf6; stroke:#ece0c4; stroke-width:1.2; rx:15; }
      .mem{ fill:#fdece4; stroke:#f0c9b6; stroke-width:1.4; rx:16; }
      .share{ fill:#fcf6e6; stroke:#ece0c4; stroke-dasharray:3 4; rx:14; }
      .ln3{ stroke:#cdbfa3; stroke-width:1.5; fill:none; marker-end:url(#a3); }
      .ln3g{ stroke:#cf9a52; stroke-width:1.6; fill:none; marker-end:url(#a3g); }
      .al3g{ fill:#a87a36; font-size:11.5px; }
    </style>
  </defs>
  <rect x="0" y="0" width="1040" height="600" fill="#fdf8ec" rx="18"/>
  <text class="t3" x="44" y="56">整体系统</text>
  <rect x="46" y="68" width="58" height="3" rx="1.5" fill="#e76f51"/>
  <rect class="share" x="664" y="36" width="336" height="28" rx="14"/>
  <text class="d3" x="682" y="54">底层共享：模型配置 · 多模型路由 · 封面 / 图片服务</text>

  <rect class="pill" x="150" y="92" width="170" height="46" filter="url(#s3)"/><text class="pl" x="200" y="120">Studio 对话</text>
  <rect class="pill" x="345" y="92" width="150" height="46" filter="url(#s3)"/><text class="pl" x="395" y="120">命令行</text>
  <rect class="pill" x="520" y="92" width="150" height="46" filter="url(#s3)"/><text class="pl" x="558" y="120">终端面板</text>
  <rect class="pill" x="695" y="92" width="170" height="46" filter="url(#s3)"/><text class="pl" x="748" y="120">OpenClaw</text>

  <path class="ln3" d="M235,138 L 470,178"/>
  <path class="ln3" d="M420,138 L 500,178"/>
  <path class="ln3" d="M595,138 L 540,178"/>
  <path class="ln3" d="M780,138 L 570,178"/>

  <rect class="band" x="120" y="180" width="800" height="76" filter="url(#s3)"/>
  <text class="bandt" x="150" y="215">统一执行面</text>
  <text class="d3" x="150" y="239">重动作先确认 · 完成态来自真实工具结果 · 生成物可预览可编辑</text>

  <path class="ln3" d="M380,256 L 320,294"/>
  <path class="ln3" d="M660,256 L 720,294"/>

  <rect class="c3" x="120" y="296" width="382" height="118" filter="url(#s3)"/>
  <text class="nm3k" x="146" y="330">长篇 / 短篇生产线</text>
  <text class="d3" x="146" y="358">规划 → 编排 → 写作 → 审计 → 修订 → 结算</text>
  <text class="d3" x="146" y="382">产出：书 · 章节 · 短篇 · 封面 · 审稿记录</text>
  <text class="d3" x="146" y="406">权威状态存为结构化文件，可长期续写</text>

  <rect class="c3" x="538" y="296" width="382" height="118" filter="url(#s3)"/>
  <text class="nm3k" x="564" y="330">互动世界运行线</text>
  <text class="d3" x="564" y="358">开放世界 / 分支互动 · 世界契约 · 时间推进</text>
  <text class="d3" x="564" y="382">自由动作或可点击选择，每回合写回世界</text>
  <text class="d3" x="564" y="406">状态：角色 · 物品 · 证据 · 关系 · 面板 · 配图</text>

  <path class="ln3g" d="M280,414 L 280,470"/>
  <path class="ln3g" d="M342,470 L 342,416"/>
  <text class="al3g" x="200" y="448">装配 ↑ / 写回 ↓</text>
  <path class="ln3g" d="M698,414 L 698,470"/>
  <path class="ln3g" d="M760,470 L 760,416"/>
  <text class="al3g" x="772" y="448">↑ 装配 / ↓ 写回</text>

  <rect class="mem" x="120" y="472" width="800" height="96" filter="url(#s3)"/>
  <text class="memt" x="150" y="508">记忆与上下文 · 按需插拔</text>
  <text class="d3" x="150" y="534">按相关性检索装配 · 常驻 / 可压缩分层 · 接近上下文窗口才语义压缩</text>
  <text class="d3" x="150" y="556">权威状态 story/state · 可读投影 story/*.md · 时序检索 story/memory.db</text>
</svg>
