<?xml version="1.0" encoding="UTF-8"?>
<svg viewBox="0 0 1040 430" xmlns="http://www.w3.org/2000/svg" font-family="-apple-system,'PingFang SC',system-ui,sans-serif">
  <defs>
    <marker id="a1" markerWidth="8" markerHeight="8" refX="6.5" refY="4" orient="auto"><path d="M0,0 L7,4 L0,8 Z" fill="#cdbfa3"/></marker>
    <marker id="a1g" markerWidth="8" markerHeight="8" refX="6.5" refY="4" orient="auto"><path d="M0,0 L7,4 L0,8 Z" fill="#cf9a52"/></marker>
    <filter id="s1" x="-20%" y="-30%" width="140%" height="170%"><feDropShadow dx="0" dy="3" stdDeviation="4" flood-color="#5b3a1e" flood-opacity="0.12"/></filter>
    <style>
      .t{ fill:#2d1b0e; font-size:23px; font-weight:800; letter-spacing:.02em; }
      .nm{ fill:#3a2817; font-size:16px; font-weight:700; }
      .nmk{ fill:#c0532f; font-size:16px; font-weight:800; }
      .nmg{ fill:#9a6a1e; font-size:16px; font-weight:800; }
      .d{ fill:#7a6a55; font-size:12px; }
      .c{ fill:#fffdf6; stroke:#ece0c4; stroke-width:1.2; rx:14; }
      .ck{ fill:#fdeee7; stroke:#f0cdbd; }
      .cg{ fill:#fbf2db; stroke:#ecdbac; }
      .opt{ fill:#fcf6e6; stroke:#ece0c4; stroke-dasharray:3 4; }
      .ln{ stroke:#cdbfa3; stroke-width:1.5; fill:none; marker-end:url(#a1); }
      .lng{ stroke:#cf9a52; stroke-width:1.5; fill:none; stroke-dasharray:5 5; marker-end:url(#a1g); }
      .al{ fill:#9a8a72; font-size:11.5px; }
      .alg{ fill:#a87a36; font-size:11.5px; }
    </style>
  </defs>
  <rect x="0" y="0" width="1040" height="430" fill="#fdf8ec" rx="18"/>
  <text class="t" x="44" y="56">章节生产管线</text>
  <rect x="46" y="68" width="58" height="3" rx="1.5" fill="#e76f51"/>

  <rect class="opt" x="540" y="36" width="300" height="28" rx="14"/>
  <text class="d" x="558" y="54">建筑师 · 建书 / 导入 / 番外时生成设定</text>
  <rect class="opt" x="852" y="36" width="148" height="28" rx="14"/>
  <text class="d" x="870" y="54">雷达 · 趋势（可跳过）</text>

  <rect class="c" x="44" y="120" width="166" height="78" filter="url(#s1)"/>
  <text class="nm" x="66" y="156">规划师</text><text class="d" x="66" y="180">章节意图 · 取舍</text>
  <rect class="c" x="246" y="120" width="166" height="78" filter="url(#s1)"/>
  <text class="nm" x="268" y="156">编排师</text><text class="d" x="268" y="180">上下文 · 规则栈</text>
  <rect class="c ck" x="448" y="120" width="166" height="78" filter="url(#s1)"/>
  <text class="nmk" x="470" y="156">写手</text><text class="d" x="470" y="180">生成正文 · 字数治理</text>
  <rect class="c" x="650" y="120" width="166" height="78" filter="url(#s1)"/>
  <text class="nm" x="672" y="156">审计员</text><text class="d" x="672" y="180">三十七维度连续性</text>
  <rect class="c" x="852" y="120" width="148" height="78" filter="url(#s1)"/>
  <text class="nm" x="874" y="156">修订者</text><text class="d" x="874" y="180">修复关键问题</text>

  <path class="ln" d="M210,159 L244,159"/>
  <path class="ln" d="M412,159 L446,159"/>
  <path class="ln" d="M614,159 L648,159"/>
  <path class="ln" d="M816,159 L850,159"/>
  <text class="al" x="752" y="152">未过</text>
  <path class="ln" d="M924,198 C924,236 735,236 733,200"/>
  <text class="al" x="788" y="232">再审 · 至多一轮</text>

  <rect class="c" x="246" y="300" width="166" height="74" filter="url(#s1)"/>
  <text class="nm" x="268" y="334">观察者</text><text class="d" x="268" y="357">提取九类事实</text>
  <rect class="c" x="448" y="300" width="166" height="74" filter="url(#s1)"/>
  <text class="nm" x="470" y="334">反射器</text><text class="d" x="470" y="357">结构化增量</text>
  <rect class="c cg" x="650" y="300" width="200" height="74" filter="url(#s1)"/>
  <text class="nmg" x="672" y="334">状态结算</text><text class="d" x="672" y="357">校验后写回权威状态</text>

  <path class="ln" d="M500,198 C500,272 360,262 348,298"/>
  <text class="al" x="506" y="262">正文</text>
  <path class="ln" d="M412,337 L446,337"/>
  <path class="ln" d="M614,337 L648,337"/>
  <path class="lng" d="M650,345 C320,384 128,300 127,200"/>
  <text class="alg" x="300" y="402">写下一章前 · 按相关性检索记忆</text>
</svg>
